HIERARCHY
ROOT joint_Root
{
	OFFSET 0.0 0.0 0.0
	CHANNELS 6 Xposition Yposition Zposition Zrotation Xrotation Yrotation 
	JOINT Hips
	{
		OFFSET -17.1583 93.1646 452.98
		CHANNELS 6 Xposition Yposition Zposition Zrotation Xrotation Yrotation 
		JOINT Spine
		{
			OFFSET 15.7357 0.0 0.0
			CHANNELS 6 Xposition Yposition Zposition Zrotation Xrotation Yrotation 
			JOINT Chest
			{
				OFFSET 8.98455 -0.406207 0.0
				CHANNELS 6 Xposition Yposition Zposition Zrotation Xrotation Yrotation 
				JOINT Neck
				{
					OFFSET 16.3773 0.0 0.0
					CHANNELS 6 Xposition Yposition Zposition Zrotation Xrotation Yrotation 
					JOINT Head
					{
						OFFSET 6.45672 0.0 0.0
						CHANNELS 6 Xposition Yposition Zposition Zrotation Xrotation Yrotation 
						End Site
						{
							OFFSET 0.0 0.0 0.0
						}
					}
				}
				JOINT Shoulder_L
				{
					OFFSET 12.9942 -0.242716 4.98039
					CHANNELS 6 Xposition Yposition Zposition Zrotation Xrotation Yrotation 
					JOINT UpperArm_L
					{
						OFFSET 5.34809 0.0 0.0
						CHANNELS 6 Xposition Yposition Zposition Zrotation Xrotation Yrotation 
						JOINT LowerArm_L
						{
							OFFSET 24.3286 1.87007e-05 0.0
							CHANNELS 6 Xposition Yposition Zposition Zrotation Xrotation Yrotation 
							JOINT Hand_L
							{
								OFFSET 22.2916 0.0 0.0
								CHANNELS 6 Xposition Yposition Zposition Zrotation Xrotation Yrotation 
								End Site
								{
									OFFSET 0.0 0.0 0.0
								}
							}
						}
					}
				}
				JOINT Shoulder_R
				{
					OFFSET 12.9945 -0.242716 -4.98039
					CHANNELS 6 Xposition Yposition Zposition Zrotation Xrotation Yrotation 
					JOINT UpperArm_R
					{
						OFFSET -5.34813 0.0 0.0
						CHANNELS 6 Xposition Yposition Zposition Zrotation Xrotation Yrotation 
						JOINT LowerArm_R
						{
							OFFSET -24.3289 0.000322201 0.0
							CHANNELS 6 Xposition Yposition Zposition Zrotation Xrotation Yrotation 
							JOINT Hand_R
							{
								OFFSET -22.2915 -0.000108084 0.0
								CHANNELS 6 Xposition Yposition Zposition Zrotation Xrotation Yrotation 
								End Site
								{
									OFFSET 0.0 0.0 0.0
								}
							}
						}
					}
				}
			}
		}
		JOINT UpperLeg_L
		{
			OFFSET -2.19248 -6.46944 0.0
			CHANNELS 6 Xposition Yposition Zposition Zrotation Xrotation Yrotation 
			JOINT LowerLeg_L
			{
				OFFSET 39.0811 0.0 -1.23785e-05
				CHANNELS 6 Xposition Yposition Zposition Zrotation Xrotation Yrotation 
				JOINT Foot_L
				{
					OFFSET 40.9854 0.0 -1.26872e-05
					CHANNELS 6 Xposition Yposition Zposition Zrotation Xrotation Yrotation 
					JOINT Toes_L
					{
						OFFSET 11.7543 0.0 0.0
						CHANNELS 6 Xposition Yposition Zposition Zrotation Xrotation Yrotation 
						End Site
						{
							OFFSET 0.0 0.0 0.0
						}
					}
				}
			}
		}
		JOINT UpperLeg_R
		{
			OFFSET -2.19251 6.46944 0.0
			CHANNELS 6 Xposition Yposition Zposition Zrotation Xrotation Yrotation 
			JOINT LowerLeg_R
			{
				OFFSET -39.0811 -0.00228153 -0.0401928
				CHANNELS 6 Xposition Yposition Zposition Zrotation Xrotation Yrotation 
				JOINT Foot_R
				{
					OFFSET -40.9854 0.0 0.0
					CHANNELS 6 Xposition Yposition Zposition Zrotation Xrotation Yrotation 
					JOINT Toes_R
					{
						OFFSET -11.7543 0.0 0.0
						CHANNELS 6 Xposition Yposition Zposition Zrotation Xrotation Yrotation 
						End Site
						{
							OFFSET 0.0 0.0 0.0
						}
					}
				}
			}
		}
	}
}
MOTION
Frames:	9
Frame Time:	0.0333333
0.000000 0.000000 0.000000 0.000000 0.000000 -0.000000 -0.681400 93.085600 -0.141642 88.113400 1.729520 1.189180 15.735700 0.000005 -0.000001 85.136300 86.542200 -83.458900 8.984550 -0.406207 -0.000000 -0.862786 -0.712459 3.347820 16.377300 -0.000001 -0.000001 1.927520 1.689030 -1.651890 6.456720 -0.000001 -0.000000 -2.452830 1.724380 -3.463310 12.994200 -0.242716 4.980390 -92.760300 8.864220 -72.626100 5.348090 -0.000007 -0.000001 -71.825100 30.736300 -1.151130 24.328600 0.000019 0.000005 12.505500 28.025400 -25.269300 22.291600 -0.000001 0.000005 -3.851620 5.091830 5.287680 12.994500 -0.242716 -4.980390 88.687300 4.671310 -74.284600 -5.348130 -0.000001 -0.000004 -71.214000 27.857200 -5.245130 -24.328900 0.000322 -0.000009 -0.084115 -0.326604 -14.266800 -22.291500 -0.000108 -0.000004 1.804790 5.302630 -0.001734 -2.192480 -6.469440 -0.000000 -173.232000 -4.816760 -1.521890 39.081100 -0.000007 -0.000012 0.028410 -0.098198 16.135800 40.985400 -0.000006 -0.000013 -0.993866 13.617100 -68.998400 11.754300 -0.000000 0.000003 -0.000613 0.177371 -9.382170 -2.192510 6.469440 -0.000001 177.728000 7.013030 -179.053000 -39.081100 -0.002282 -0.040193 0.027977 -0.109154 12.722000 -40.985400 0.000008 0.000006 -5.115140 3.771850 -68.132900 -11.754300 -0.000006 -0.000006 -0.010509 0.275071 -5.396940
0.000000 0.000000 0.000000 0.000000 0.000000 -0.000000 -0.696914 93.175000 -0.231301 88.143700 1.946180 0.196696 15.735700 0.000005 -0.000001 84.469200 86.675100 -82.803800 8.984550 -0.406207 -0.000000 -1.133750 -0.770082 3.321980 16.377300 -0.000001 -0.000001 0.477129 1.451770 -1.371900 6.456720 -0.000001 -0.000000 -4.749960 1.599850 -3.775910 12.994200 -0.242716 4.980390 -92.811200 8.996760 -72.567600 5.348090 -0.000007 -0.000001 -69.788800 31.116200 -3.056490 24.328600 0.000019 0.000005 13.638500 31.161800 -25.123100 22.291600 -0.000001 0.000005 -7.780540 5.213930 2.307290 12.994500 -0.242716 -4.980390 88.723800 4.486800 -74.105000 -5.348130 -0.000001 -0.000004 -70.834300 26.700100 -5.976070 -24.328900 0.000322 -0.000009 0.289561 1.201320 -13.613000 -22.291500 -0.000108 -0.000004 0.356307 5.325570 -0.663798 -2.192480 -6.469440 -0.000000 -173.337000 -4.891160 -2.231520 39.081100 -0.000007 -0.000012 0.029669 -0.107764 15.393300 40.985400 -0.000006 -0.000013 -1.082270 13.780100 -68.807300 11.754300 -0.000000 0.000003 -0.000789 0.179992 -9.275660 -2.192510 6.469440 -0.000001 177.750000 7.365450 -179.693000 -39.081100 -0.002282 -0.040193 0.021288 -0.085359 11.877500 -40.985400 0.000008 0.000006 -5.674650 3.950490 -67.542500 -11.754300 -0.000006 -0.000006 -0.010539 0.275288 -5.388050
0.000000 0.000000 0.000000 0.000000 0.000000 -0.000000 -0.761707 93.250300 -0.272686 88.116300 2.208990 -0.797019 15.735700 0.000005 -0.000001 83.058300 86.932200 -81.382500 8.984550 -0.406207 -0.000000 -1.660330 -0.879168 3.338080 16.377300 -0.000001 -0.000001 -0.959520 1.244180 -1.103070 6.456720 -0.000001 -0.000000 -6.680720 1.545850 -3.997300 12.994200 -0.242716 4.980390 -92.810600 8.925100 -72.440600 5.348090 -0.000007 -0.000001 -66.508700 30.712600 -6.094280 24.328600 0.000019 0.000005 14.691400 36.086600 -23.996500 22.291600 -0.000001 0.000005 -13.949800 5.388270 -2.666870 12.994500 -0.242716 -4.980390 88.844000 3.940990 -73.638000 -5.348130 -0.000001 -0.000004 -69.664800 25.408900 -7.405450 -24.328900 0.000322 -0.000009 0.980925 4.667290 -11.905500 -22.291500 -0.000108 -0.000004 -3.924860 5.347700 -1.313840 -2.192480 -6.469440 -0.000000 -173.356000 -4.638220 -2.976660 39.081100 -0.000007 -0.000012 0.031517 -0.119953 14.721500 40.985400 -0.000006 -0.000013 -1.241310 13.689900 -68.596100 11.754300 -0.000000 0.000003 -0.000851 0.180901 -9.238730 -2.192510 6.469440 -0.000001 177.870000 7.687730 179.672000 -39.081100 -0.002282 -0.040193 0.016178 -0.065564 11.081700 -40.985400 0.000008 0.000006 -6.443550 4.075610 -66.944800 -11.754300 -0.000006 -0.000006 -0.010617 0.275856 -5.364790
0.000000 0.000000 0.000000 0.000000 0.000000 -0.000000 -0.826955 93.325800 -0.191900 88.120200 2.463260 -1.625150 15.735700 0.000005 -0.000001 81.320500 87.299000 -79.692300 8.984550 -0.406207 -0.000000 -2.410330 -0.959468 3.236200 16.377300 -0.000001 -0.000001 -2.252120 0.989328 -0.786512 6.456720 -0.000001 -0.000000 -7.781560 1.577240 -3.974050 12.994200 -0.242716 4.980390 -92.648800 8.415430 -72.457800 5.348090 -0.000007 -0.000001 -62.163000 27.325800 -9.865690 24.328600 0.000019 0.000005 12.207100 37.233500 -19.673300 22.291600 -0.000001 0.000005 -22.021200 5.453170 -4.725880 12.994500 -0.242716 -4.980390 89.071400 3.092740 -73.278800 -5.348130 -0.000001 -0.000004 -67.294200 23.009200 -9.003100 -24.328900 0.000322 -0.000009 1.495530 8.641680 -9.866220 -22.291500 -0.000108 -0.000004 -11.542600 5.345580 -1.224580 -2.192480 -6.469440 -0.000000 -173.363000 -4.446490 -3.334790 39.081100 -0.000007 -0.000012 0.029866 -0.121489 13.811500 40.985400 -0.000006 -0.000013 -1.402620 13.692500 -68.378900 11.754300 -0.000000 0.000003 -0.001186 0.185638 -9.046190 -2.192510 6.469440 -0.000001 177.924000 8.013100 179.423000 -39.081100 -0.002282 -0.040193 0.011298 -0.045008 10.028700 -40.985400 0.000008 0.000006 -7.258720 4.226320 -66.302600 -11.754300 -0.000006 -0.000006 -0.010771 0.276976 -5.318990
0.000000 0.000000 0.000000 0.000000 0.000000 -0.000000 -0.908585 93.351900 0.029591 88.125300 2.492470 -2.031740 15.735700 0.000005 -0.000001 80.027400 87.658100 -78.496400 8.984550 -0.406207 -0.000000 -3.138600 -0.956381 3.036480 16.377300 -0.000001 -0.000001 -3.203750 0.839862 -0.626860 6.456720 -0.000001 -0.000000 -8.444320 1.519290 -3.546590 12.994200 -0.242716 4.980390 -92.364400 7.426180 -72.283200 5.348090 -0.000007 -0.000001 -57.393500 19.522900 -13.473300 24.328600 0.000019 0.000005 9.136400 37.476700 -14.806900 22.291600 -0.000001 0.000005 -27.522300 5.398880 -2.895640 12.994500 -0.242716 -4.980390 89.354400 2.091700 -72.841200 -5.348130 -0.000001 -0.000004 -63.477000 18.835300 -10.870800 -24.328900 0.000322 -0.000009 1.180340 9.472890 -7.141970 -22.291500 -0.000108 -0.000004 -19.021400 5.281440 0.618673 -2.192480 -6.469440 -0.000000 -173.322000 -4.634260 -3.283880 39.081100 -0.000007 -0.000012 0.027869 -0.118899 13.191900 40.985400 -0.000006 -0.000013 -1.492650 13.847100 -68.240000 11.754300 -0.000000 0.000003 -0.001408 0.188665 -8.923140 -2.192510 6.469440 -0.000001 177.974000 7.950140 179.500000 -39.081100 -0.002282 -0.040193 0.009003 -0.034446 9.335650 -40.985400 0.000008 0.000006 -7.685430 4.129010 -65.925200 -11.754300 -0.000006 -0.000006 -0.010633 0.275975 -5.359950
0.000000 0.000000 0.000000 0.000000 0.000000 -0.000000 -0.995440 93.353900 0.379857 88.090000 2.232360 -2.218440 15.735700 0.000005 -0.000001 78.456100 88.033100 -77.028600 8.984550 -0.406207 -0.000000 -3.898900 -0.931947 2.824570 16.377300 -0.000001 -0.000001 -3.979340 0.884422 -0.554763 6.456720 -0.000001 -0.000000 -8.634470 1.601490 -2.988220 12.994200 -0.242716 4.980390 -91.986600 6.154000 -72.070200 5.348090 -0.000007 -0.000001 -51.670800 10.306600 -16.911100 24.328600 0.000019 0.000005 6.654050 38.381300 -10.641400 22.291600 -0.000001 0.000005 -26.035400 5.383020 -2.391270 12.994500 -0.242716 -4.980390 89.658000 1.075070 -72.351300 -5.348130 -0.000001 -0.000004 -58.124900 12.803800 -13.103000 -24.328900 0.000322 -0.000009 0.705597 10.050300 -4.043470 -22.291500 -0.000108 -0.000004 -21.781700 5.216500 2.301880 -2.192480 -6.469440 -0.000000 -173.200000 -5.187190 -2.900140 39.081100 -0.000007 -0.000012 0.028653 -0.127691 12.647500 40.985400 -0.000006 -0.000013 -1.558450 14.127600 -68.206500 11.754300 -0.000000 0.000003 -0.001383 0.188335 -8.936600 -2.192510 6.469440 -0.000001 178.010000 7.815080 179.805000 -39.081100 -0.002282 -0.040193 0.007020 -0.023864 8.764010 -40.985400 0.000008 0.000006 -8.087770 4.290630 -65.695100 -11.754300 -0.000006 -0.000006 -0.010648 0.276086 -5.355400
0.000000 0.000000 0.000000 0.000000 0.000000 -0.000000 -1.102400 93.281900 0.937533 88.024600 1.669950 -2.032710 15.735700 0.000005 -0.000001 75.721800 88.406200 -74.398800 8.984550 -0.406207 -0.000000 -4.665150 -0.928878 2.610110 16.377300 -0.000001 -0.000001 -4.401970 1.113090 -0.385220 6.456720 -0.000001 -0.000000 -8.474090 1.954520 -2.441210 12.994200 -0.242716 4.980390 -91.603400 4.838030 -71.638100 5.348090 -0.000007 -0.000001 -44.332200 2.459850 -19.490500 24.328600 0.000019 0.000005 5.465730 38.159000 -8.803210 22.291600 -0.000001 0.000005 -20.552800 5.378440 -2.269440 12.994500 -0.242716 -4.980390 89.945800 0.165122 -71.817800 -5.348130 -0.000001 -0.000004 -51.369300 5.790140 -15.489300 -24.328900 0.000322 -0.000009 0.259315 11.199400 -1.342240 -22.291500 -0.000108 -0.000004 -19.206000 5.229390 1.982130 -2.192480 -6.469440 -0.000000 -172.990000 -5.775600 -2.201430 39.081100 -0.000007 -0.000012 0.029009 -0.129439 12.632100 40.985400 -0.000006 -0.000013 -1.575330 14.229500 -68.497700 11.754300 -0.000000 0.000003 -0.001562 0.190722 -8.839540 -2.192510 6.469440 -0.000001 178.060000 7.571870 -179.779000 -39.081100 -0.002282 -0.040193 0.006012 -0.016917 8.972460 -40.985400 0.000008 0.000006 -7.862350 4.658120 -66.068100 -11.754300 -0.000006 -0.000006 -0.010818 0.277320 -5.304900
0.000000 0.000000 0.000000 0.000000 0.000000 -0.000000 -1.203870 93.169200 1.687940 87.888100 0.737887 -1.805170 15.735700 0.000005 -0.000001 70.099700 88.859000 -68.838700 8.984550 -0.406207 -0.000000 -5.609320 -0.922810 2.479650 16.377300 -0.000001 -0.000001 -4.521170 1.472060 -0.059552 6.456720 -0.000001 -0.000000 -8.053750 2.621270 -2.029010 12.994200 -0.242716 4.980390 -91.264600 3.648570 -70.868000 5.348090 -0.000007 -0.000001 -36.102900 -4.873400 -21.361300 24.328600 0.000019 0.000005 4.894430 36.475600 -8.196660 22.291600 -0.000001 0.000005 -13.097100 5.329250 -0.808139 12.994500 -0.242716 -4.980390 90.241400 -0.710518 -71.236600 -5.348130 -0.000001 -0.000004 -43.888500 -1.878870 -18.186800 -24.328900 0.000322 -0.000009 -0.000979 11.958000 0.000050 -22.291500 -0.000108 -0.000004 -14.951400 5.262610 1.099440 -2.192480 -6.469440 -0.000000 -172.742000 -6.105640 -1.359690 39.081100 -0.000007 -0.000012 0.028441 -0.125055 12.812800 40.985400 -0.000006 -0.000013 -1.614110 13.697800 -69.006300 11.754300 -0.000000 0.000003 -0.001733 0.192957 -8.748670 -2.192510 6.469440 -0.000001 178.107000 7.317540 -179.329000 -39.081100 -0.002282 -0.040193 0.005047 -0.010318 9.394150 -40.985400 0.000008 0.000006 -7.742670 5.356370 -66.584800 -11.754300 -0.000006 -0.000006 -0.010973 0.278439 -5.259110
0.000000 0.000000 0.000000 0.000000 0.000000 -0.000000 -1.291340 93.024600 2.590240 87.688900 -0.528609 -1.368030 15.735700 0.000005 -0.000001 58.119500 89.300700 -56.830200 8.984550 -0.406207 -0.000000 -6.567400 -0.898492 2.531060 16.377300 -0.000001 -0.000001 -4.306030 2.024080 0.041705 6.456720 -0.000001 -0.000000 -7.542130 3.417210 -1.551220 12.994200 -0.242716 4.980390 -90.817200 2.256860 -70.086600 5.348090 -0.000007 -0.000001 -28.511200 -12.486200 -22.577900 24.328600 0.000019 0.000005 4.314740 34.521400 -7.583300 22.291600 -0.000001 0.000005 -4.284100 5.235560 1.736470 12.994500 -0.242716 -4.980390 90.551200 -1.577700 -70.739300 -5.348130 -0.000001 -0.000004 -36.324500 -9.295160 -21.267100 -24.328900 0.000322 -0.000009 -0.000856 9.770190 0.000039 -22.291500 -0.000108 -0.000004 -9.903620 5.265630 1.016420 -2.192480 -6.469440 -0.000000 -172.458000 -6.327380 -0.106327 39.081100 -0.000007 -0.000012 0.030330 -0.131394 12.998200 40.985400 -0.000006 -0.000013 -1.668280 12.769600 -69.662200 11.754300 -0.000000 0.000003 -0.001830 0.194195 -8.698320 -2.192510 6.469440 -0.000001 178.130000 6.855400 -178.551000 -39.081100 -0.002282 -0.040193 0.002820 0.003015 9.770930 -40.985400 0.000008 0.000006 -7.581220 6.234840 -67.139600 -11.754300 -0.000006 -0.000006 -0.011041 0.278925 -5.239220
